<?xml version="1.0" standalone="no"?>
<!DOCTYPE svg PUBLIC "-//W3C//DTD SVG 20010904//EN"
 "http://www.w3.org/TR/2001/REC-SVG-20010904/DTD/svg10.dtd">
<svg version="1.0" xmlns="http://www.w3.org/2000/svg"
 width="150.000000pt" height="150.000000pt" viewBox="0 0 150.000000 150.000000"
 preserveAspectRatio="xMidYMid meet">

<g transform="translate(0.000000,150.000000) scale(0.100000,-0.100000)"
fill="#000000" stroke="none">
<path d="M691 1353 c-12 -10 -79 -97 -149 -193 -119 -164 -130 -176 -167 -184
-67 -14 -135 -48 -166 -83 -102 -117 -102 -262 -1 -375 27 -29 65 -79 86 -110
177 -270 550 -316 790 -98 31 29 72 78 91 109 20 32 49 68 65 79 16 12 43 51
61 87 29 59 31 71 27 134 -10 132 -92 227 -219 252 l-59 12 -131 184 c-72 101
-139 188 -149 193 -28 15 -55 12 -79 -7z m190 -209 l120 -168 -49 -22 c-57
-25 -111 -75 -138 -130 -14 -30 -19 -60 -19 -126 0 -84 1 -87 40 -144 58 -83
125 -119 222 -119 40 0 73 -3 73 -6 0 -3 -19 -28 -42 -54 -181 -206 -506 -213
-699 -15 -32 33 -59 65 -59 70 0 5 21 7 48 3 107 -12 221 52 272 153 19 38 24
64 24 119 0 111 -52 192 -153 243 l-58 29 123 168 c68 93 129 172 136 176 7 4
18 4 26 0 7 -4 68 -84 133 -177z m-369 -246 c23 -13 56 -42 72 -66 l30 -43
-46 -45 -45 -46 -132 82 c-72 44 -131 85 -131 89 0 13 27 32 67 47 51 19 133
11 185 -18z m657 3 c22 -12 41 -25 41 -29 0 -4 -60 -44 -133 -89 l-132 -82
-42 42 c-24 22 -43 47 -43 55 0 23 84 102 125 118 51 18 130 12 184 -15z
m-906 -94 c26 -20 27 -24 16 -55 -25 -71 15 -149 88 -173 28 -9 43 -8 79 6 24
9 51 26 59 37 l14 21 41 -27 42 -27 -25 -32 c-78 -102 -249 -107 -338 -10 -62
66 -81 166 -46 246 19 43 31 46 70 14z m995 10 c6 -7 16 -33 23 -58 33 -122
-48 -252 -172 -278 -78 -17 -139 1 -201 58 l-52 48 43 27 42 27 35 -30 c62
-55 164 -39 200 30 16 31 16 95 0 131 -6 13 0 22 26 38 39 24 42 24 56 7z"/>
</g>
</svg>
